HIERARCHY
ROOT Hips
{
	OFFSET 0.00000 0.00000 0.00000
	CHANNELS 6 Xposition Yposition Zposition Zrotation Yrotation Xrotation 
	JOINT LHipJoint
	{
		OFFSET 0 0 0
		CHANNELS 3 Zrotation Yrotation Xrotation
		JOINT LeftUpLeg
		{
			OFFSET 1.53139 -1.83434 0.76626
			CHANNELS 3 Zrotation Yrotation Xrotation
			JOINT LeftLeg
			{
				OFFSET 2.56112 -7.03663 0.00000
				CHANNELS 3 Zrotation Yrotation Xrotation
				JOINT LeftFoot
				{
					OFFSET 2.59983 -7.14299 0.00000
					CHANNELS 3 Zrotation Yrotation Xrotation
					JOINT LeftToeBase
					{
						OFFSET 0.13742 -0.37757 2.00054
						CHANNELS 3 Zrotation Yrotation Xrotation
						End Site
						{
							OFFSET 0.00000 -0.00000 1.02897
						}
					}
				}
			}
		}
	}
	JOINT RHipJoint
	{
		OFFSET 0 0 0
		CHANNELS 3 Zrotation Yrotation Xrotation
		JOINT RightUpLeg
		{
			OFFSET -1.40122 -1.83435 0.76627
			CHANNELS 3 Zrotation Yrotation Xrotation
			JOINT RightLeg
			{
				OFFSET -2.54052 -6.98003 0.00000
				CHANNELS 3 Zrotation Yrotation Xrotation
				JOINT RightFoot
				{
					OFFSET -2.63179 -7.23079 0.00000
					CHANNELS 3 Zrotation Yrotation Xrotation
					JOINT RightToeBase
					{
						OFFSET -0.24131 -0.66299 2.03908
						CHANNELS 3 Zrotation Yrotation Xrotation
						End Site
						{
							OFFSET -0.00000 -0.00000 1.07391
						}
					}
				}
			}
		}
	}
	JOINT LowerBack
	{
		OFFSET 0 0 0
		CHANNELS 3 Zrotation Yrotation Xrotation
		JOINT Spine
		{
			OFFSET 0.01174 2.10302 -0.29778
			CHANNELS 3 Zrotation Yrotation Xrotation
			JOINT Spine1
			{
				OFFSET 0.00772 2.13227 -0.01247
				CHANNELS 3 Zrotation Yrotation Xrotation
				JOINT Neck
				{
					OFFSET 0 0 0
					CHANNELS 3 Zrotation Yrotation Xrotation
					JOINT Neck1
					{
						OFFSET -0.09219 1.60848 0.31481
						CHANNELS 3 Zrotation Yrotation Xrotation
						JOINT Head
						{
							OFFSET 0.13974 1.65456 -0.31134
							CHANNELS 3 Zrotation Yrotation Xrotation
							End Site
							{
								OFFSET 0.04742 1.69515 -0.14578
							}
						}
					}
				}
				JOINT LeftShoulder
				{
					OFFSET 0 0 0
					CHANNELS 3 Zrotation Yrotation Xrotation
					JOINT LeftArm
					{
						OFFSET 3.24909 1.02882 -0.23993
						CHANNELS 3 Zrotation Yrotation Xrotation
						JOINT LeftForeArm
						{
							OFFSET 5.32955 -0.00000 -0.00000
							CHANNELS 3 Zrotation Yrotation Xrotation
							JOINT LeftHand
							{
								OFFSET 3.69232 -0.00000 -0.00000
								CHANNELS 3 Zrotation Yrotation Xrotation
								JOINT LeftFingerBase
								{
									OFFSET 0 0 0
									CHANNELS 3 Zrotation Yrotation Xrotation
									JOINT LeftHandIndex1
									{
										OFFSET 0.53660 -0.00000 -0.00000
										CHANNELS 3 Zrotation Yrotation Xrotation
										End Site
										{
											OFFSET 0.43262 -0.00000 -0.00000
										}
									}
								}
								JOINT LThumb
								{
									OFFSET 0 0 0
									CHANNELS 3 Zrotation Yrotation Xrotation
									End Site
									{
										OFFSET 0.43922 -0.00000 0.43922
									}
								}
							}
						}
					}
				}
				JOINT RightShoulder
				{
					OFFSET 0 0 0
					CHANNELS 3 Zrotation Yrotation Xrotation
					JOINT RightArm
					{
						OFFSET -3.21387 0.93002 -0.34594
						CHANNELS 3 Zrotation Yrotation Xrotation
						JOINT RightForeArm
						{
							OFFSET -5.23431 -0.00000 0.00000
							CHANNELS 3 Zrotation Yrotation Xrotation
							JOINT RightHand
							{
								OFFSET -3.55301 -0.00000 -0.00000
								CHANNELS 3 Zrotation Yrotation Xrotation
								JOINT RightFingerBase
								{
									OFFSET 0 0 0
									CHANNELS 3 Zrotation Yrotation Xrotation
									JOINT RightHandIndex1
									{
										OFFSET -0.77252 -0.00000 -0.00000
										CHANNELS 3 Zrotation Yrotation Xrotation
										End Site
										{
											OFFSET -0.62283 -0.00000 -0.00000
										}
									}
								}
								JOINT RThumb
								{
									OFFSET 0 0 0
									CHANNELS 3 Zrotation Yrotation Xrotation
									End Site
									{
										OFFSET -0.63234 -0.00000 0.63234
									}
								}
							}
						}
					}
				}
			}
		}
	}
}
MOTION
Frames: 6
Frame Time: .0083333
3.2575 17.8053 4.0036 -0.3695 -55.1252 0.9619 0.0000 0.0000 0.0000 -12.9960 -13.2266 -18.7731 1.1440 6.7920 19.1005 0.0343 -2.6118 -3.5175 1.0922 -6.6414 -18.6572 0.0000 0.0000 0.0000 30.3821 -3.9610 5.2176 -0.9273 -6.1345 17.1753 -0.7010 6.7568 -14.9706 -0.5558 -4.7754 13.2692 2.5754 3.0003 8.6201 0.3275 4.2548 0.1381 -1.6231 2.0478 -4.5211 -13.9207 -8.4846 -18.8142 11.8493 -11.8490 27.9786 4.9171 -5.2388 14.3743 0.0000 -0.0000 0.0000 -89.1618 8.1401 19.1325 15.7336 -25.1580 -3.5319 -0.0000 -0.0000 9.2413 18.8302 24.8229 8.1473 -7.1250 0.0000 -0.0000 -11.5610 55.6503 -3.0511 0.0000 -0.0000 0.0000 88.9703 3.9567 16.0089 -20.7147 31.4937 -5.9002 0.0000 0.0000 2.8325 -16.1384 9.6273 -2.7705 7.1250 -0.0000 -0.0000 7.7268 -20.0098 4.6585
3.1527 17.8018 4.0901 -0.4423 -55.4807 1.1365 0.0000 0.0000 0.0000 -13.0892 -13.1025 -18.7530 0.9230 6.1207 17.1352 0.0287 -2.5072 -3.2527 1.1161 -6.7115 -18.8633 0.0000 0.0000 0.0000 30.2368 -4.2264 5.6890 -0.8926 -6.0217 16.8474 -0.6759 7.1543 -14.7454 -0.5620 -4.8016 13.3434 2.5763 2.9909 8.4916 0.3486 4.2394 0.1382 -1.5921 2.0419 -4.4511 -13.8341 -8.4602 -18.9837 11.7504 -11.7840 27.9886 4.8707 -5.2067 14.3892 -0.0000 -0.0000 0.0000 -89.2041 8.1230 19.0032 15.6539 -25.0492 -3.4981 -0.0000 -0.0000 9.1910 18.6870 24.7590 8.0623 -7.1250 0.0000 -0.0000 -11.6788 55.5574 -3.0563 -0.0000 -0.0000 0.0000 88.9485 4.0735 16.2358 -20.7139 31.4929 -5.8998 0.0000 0.0000 2.7034 -16.3797 9.5083 -2.7798 7.1250 -0.0000 -0.0000 7.5565 -20.1186 4.5354
3.0454 17.7966 4.1819 -0.4934 -55.8511 1.2264 0.0000 0.0000 0.0000 -13.2424 -13.0197 -18.6541 0.7499 5.5310 15.4296 0.0312 -2.3188 -3.3058 1.2076 -6.9716 -19.6312 0.0000 0.0000 0.0000 30.0209 -4.5671 6.2607 -0.8561 -5.9007 16.4965 -0.6301 7.7263 -14.3382 -0.5985 -4.9523 13.7725 2.7006 2.9625 8.4174 0.3018 4.2094 0.1379 -1.7014 2.0251 -4.3987 -13.6687 -8.4042 -18.9825 11.6240 -11.6950 27.8611 4.8029 -5.1659 14.2939 -0.0000 -0.0000 0.0000 -89.1871 8.1320 18.7209 15.5659 -24.9286 -3.4610 -0.0000 -0.0000 9.2678 18.4709 24.8157 7.9804 -7.1250 0.0000 -0.0000 -11.9288 55.5708 -3.1270 -0.0000 -0.0000 0.0000 89.0102 4.0691 16.5163 -20.7448 31.5292 -5.9159 0.0000 0.0000 2.6441 -16.5743 9.4029 -2.7838 7.1250 -0.0000 -0.0000 7.4191 -20.2162 4.4352
2.9362 17.7910 4.2716 -0.4796 -56.2399 1.2392 0.0000 0.0000 0.0000 -13.4849 -12.6663 -18.6373 0.6110 5.0031 13.9175 0.0330 -2.4343 -3.4138 1.0628 -6.5544 -18.4018 0.0000 0.0000 0.0000 29.8377 -4.6570 6.9091 -0.8305 -5.8138 16.2450 -0.5967 8.0862 -14.0423 -0.5787 -4.8713 13.5418 2.8183 2.9467 8.4043 0.1888 4.1958 0.0884 -1.8832 2.0141 -4.4267 -13.5214 -8.3356 -18.8869 11.6174 -11.6471 27.7866 4.7843 -5.1354 14.2204 0.0000 0.0000 0.0000 -89.0411 8.2209 18.5449 15.4690 -24.7955 -3.4202 -0.0000 -0.0000 9.3476 18.5678 24.8383 8.0316 -7.1250 0.0000 -0.0000 -11.8394 55.6128 -3.1152 0.0000 0.0000 0.0000 89.2611 4.0510 16.5058 -20.6685 31.4393 -5.8761 0.0000 0.0000 2.8593 -16.3047 9.5890 -2.7896 7.1250 -0.0000 -0.0000 7.6087 -20.0397 4.5809
2.8272 17.7833 4.3592 -0.5222 -56.6275 1.3709 0.0000 0.0000 0.0000 -13.7752 -12.0623 -18.8247 0.5009 4.5373 12.5934 0.0322 -2.9113 -3.5304 0.9791 -6.2989 -17.6541 0.0000 0.0000 0.0000 29.7501 -4.5185 7.4854 -0.8172 -5.7684 16.1138 -0.5787 8.1586 -13.8629 -0.4829 -4.4563 12.3641 2.8592 2.9386 8.3917 0.1390 4.1901 -0.0319 -1.9606 2.0068 -4.5388 -13.4239 -8.2859 -18.8477 11.5630 -11.6061 27.8497 4.7565 -5.1176 14.2204 -0.0000 0.0000 0.0000 -88.9685 8.4177 18.3609 15.4179 -24.7250 -3.3988 -0.0000 -0.0000 9.4741 18.6295 25.0406 8.1204 -7.1250 0.0000 -0.0000 -11.8728 55.8279 -3.1865 -0.0000 0.0000 0.0000 89.5133 4.0491 16.2953 -20.4642 31.1975 -5.7699 0.0000 0.0000 3.2542 -16.2710 9.8115 -2.8474 7.1250 -0.0000 -0.0000 7.6295 -19.8126 4.6328
2.7200 17.7697 4.4491 -0.5313 -56.9911 1.4626 0.0000 0.0000 0.0000 -14.1291 -11.5028 -18.9412 0.4161 4.1405 11.4723 0.0369 -3.4747 -3.9159 1.1797 -6.8933 -19.3997 0.0000 0.0000 0.0000 29.6448 -4.3963 8.0026 -0.8142 -5.7579 16.0835 -0.5660 8.1573 -13.7260 -0.3941 -4.0310 11.1640 2.8564 2.9368 8.3800 0.1422 4.1899 -0.1207 -1.9583 2.0044 -4.6254 -13.4293 -8.2538 -18.8690 11.5136 -11.5543 27.9560 4.7508 -5.1026 14.2589 -0.0000 -0.0000 0.0000 -89.0161 8.5356 18.0535 15.3637 -24.6504 -3.3762 -0.0000 -0.0000 9.7109 18.3765 25.1910 8.0481 -7.1250 0.0000 -0.0000 -12.2079 55.9267 -3.3077 -0.0000 -0.0000 0.0000 89.5381 3.9907 16.3337 -20.3115 31.0158 -5.6910 0.0000 0.0000 3.3759 -16.5991 9.9277 -2.9420 7.1250 -0.0000 -0.0000 7.3948 -19.6733 4.5111
